<?xml version="1.0" encoding="iso-8859-1"?>
<!-- Uploaded to: SVG Repo, www.svgrepo.com, Generator: SVG Repo Mixer Tools -->
<svg fill="#000000" height="800px" width="800px" version="1.1" id="Layer_1" xmlns="http://www.w3.org/2000/svg" xmlns:xlink="http://www.w3.org/1999/xlink" 
	 viewBox="0 0 480 480" xml:space="preserve">
<g transform="translate(0 -540.36)">
	<g>
		<g>
			<path d="M477.68,993.864L477.68,993.864c-0.4-0.5-41.298-49.989-51.597-79.483c-14.799-41.791-13.899-86.781-12.999-134.471
				c0.9-46.89,1.8-95.379-13.599-140.369v-0.1c-11.399-31.893-53.997-83.282-55.797-85.481c-1.9-2.299-4.7-3.599-7.7-3.599H41.303
				h-0.1c-0.4,0-0.9,0-1.3,0.1s-0.8,0.2-1.2,0.3c-0.1,0-0.2,0.1-0.3,0.1c-0.4,0.1-0.7,0.2-1.1,0.4h-0.1c-0.4,0.2-0.7,0.4-1.1,0.6
				c-0.1,0.1-0.2,0.1-0.3,0.2c-0.3,0.2-0.6,0.4-0.9,0.7l-0.1,0.1c-0.3,0.3-0.6,0.6-0.9,0.9c-0.1,0.1-0.1,0.1-0.2,0.2
				c-0.2,0.3-0.5,0.6-0.7,0.9c0,0.1-0.1,0.1-0.1,0.2c-0.2,0.4-0.4,0.7-0.6,1.1c0,0,0,0,0,0.1s0,0.1-0.1,0.2
				c-0.1,0.2-0.2,0.4-0.3,0.6L0.605,641.14c-1.1,3.099-0.7,6.499,1.2,9.198s4.9,4.299,8.2,4.299l78.596-0.1
				C100.1,694.029,99.3,737.619,98.5,779.71c-0.9,47.39-1.8,96.379,14.199,141.469c11.399,32.793,53.297,83.382,54.997,85.581
				c1.9,2.3,4.7,3.599,7.7,3.599h294.685c3.9,0,7.4-2.199,9-5.699C480.68,1000.962,480.18,996.863,477.68,993.864z M24.404,634.342
				c0,0,20.099-53.888,20.099-53.888c10.699,13.897,26.799,35.792,36.198,53.888H24.404z M180.096,990.464l0-0.2
				c-9.6-11.997-39.998-50.989-48.597-75.783c-14.799-41.791-13.899-86.781-12.999-134.471c0.9-46.19,1.8-93.98-12.899-138.37
				c-0.1-0.2-0.1-0.4-0.2-0.5c-0.2-0.5-0.3-0.9-0.5-1.4v-0.1c-7.6-21.195-28.799-50.889-42.798-69.085h269.186
				c9.7,12.097,40.698,51.589,49.397,75.784c14.199,41.691,13.299,88.281,12.499,133.471c-0.9,47.39-1.8,96.379,14.199,141.469
				c7.5,21.595,28.398,51.089,42.098,69.185H180.096z"/>
			<path d="M333.488,665.635c0-5.499-4.5-9.998-9.999-9.998H156.597c-5.5,0-10,4.499-10,9.998s4.5,9.998,10,9.998h166.891
				C328.988,675.633,333.488,671.134,333.488,665.635z"/>
			<path d="M343.587,738.719c0-5.499-4.5-9.998-9.999-9.998H167.496c-5.5,0-9.999,4.499-9.999,9.998c0,5.499,4.5,9.998,9.999,9.998
				h166.091C339.187,748.717,343.587,744.218,343.587,738.719z"/>
			<path d="M354.587,811.703c0-5.499-4.5-9.998-10-9.998H177.696c-5.5,0-9.999,4.499-9.999,9.998s4.5,9.998,9.999,9.998h166.891
				C350.087,821.701,354.587,817.202,354.587,811.703z"/>
			<path d="M354.787,875.589H187.895c-5.5,0-9.999,4.499-9.999,9.998s4.5,9.998,9.999,9.998h166.891c5.5,0,10-4.499,10-9.998
				S360.286,875.589,354.787,875.589z"/>
		</g>
	</g>
</g>
</svg>