<?xml version="1.0" encoding="UTF-8"?>
<!DOCTYPE svg PUBLIC "-//W3C//DTD SVG 1.1//EN" "http://www.w3.org/Graphics/SVG/1.1/DTD/svg11.dtd">
<!-- Creator: CorelDRAW X7 -->
<svg xmlns="http://www.w3.org/2000/svg" xml:space="preserve" width="1.31102in" height="1.33336in" version="1.1" style="shape-rendering:geometricPrecision; text-rendering:geometricPrecision; image-rendering:optimizeQuality; fill-rule:evenodd; clip-rule:evenodd"
viewBox="0 0 1311 1333"
 xmlns:xlink="http://www.w3.org/1999/xlink">
 <defs>
  <style type="text/css">
   <![CDATA[
    .fil0 {fill:black;fill-rule:nonzero}
   ]]>
  </style>
 </defs>
 <g id="Layer_x0020_1">
  <metadata id="CorelCorpID_0Corel-Layer"/>
  <path class="fil0" d="M656 0c7,0 16,0 25,1 9,0 17,1 26,2 16,1 28,16 27,32l-1 1 1 0c-2,8 -2,16 -3,24 -1,8 -1,16 -1,24 0,88 34,168 89,226 55,57 131,93 215,93 16,0 32,-2 47,-4 16,-3 31,-6 46,-11 16,-6 33,3 38,18 0,2 1,3 1,5 4,18 7,36 9,55l0 0c2,19 3,38 3,57l0 288c0,143 -59,274 -153,369 -95,95 -226,153 -369,153 -144,0 -275,-58 -370,-153 -94,-95 -153,-226 -153,-369l0 -288c0,-144 59,-275 153,-369l0 -1 1 0c95,-94 225,-153 369,-153zm15 60l-15 0c-128,0 -244,52 -328,136 -83,84 -136,199 -136,327l0 288c0,127 53,243 137,327 83,84 199,136 327,136 127,0 243,-52 327,-136 83,-84 136,-200 136,-327l0 -288c0,-18 -1,-35 -3,-51l0 0c-1,-6 -2,-13 -3,-19 -7,2 -15,3 -22,5 -19,3 -38,4 -57,4 -101,0 -192,-42 -257,-111 -66,-68 -106,-163 -106,-267 0,-8 0,-16 0,-24z"/>
  <g>
   <path class="fil0" d="M694 105c20,-7 42,-9 62,-7 22,2 43,10 61,25 17,15 31,35 40,63 7,21 11,45 12,74 29,-14 61,-20 91,-20 36,1 72,10 102,26 31,16 56,39 72,67l0 0 0 0c17,28 23,61 13,96 -2,11 -11,18 -21,21l0 0c-14,4 -29,7 -45,9 -16,2 -32,3 -47,3 -91,0 -175,-35 -238,-93 -65,-58 -109,-140 -122,-232 -2,-14 7,-28 20,-32l0 0zm56 52c-4,0 -8,-1 -12,0 12,53 37,101 70,141 3,-40 0,-71 -7,-93 -6,-17 -14,-29 -23,-36 -8,-7 -18,-11 -28,-12zm107 183l-2 2c50,38 112,61 179,61 14,0 27,-1 39,-3 6,-1 13,-2 19,-3 0,-12 -3,-24 -9,-35l0 0c-10,-17 -28,-33 -49,-44 -22,-11 -48,-18 -74,-18 -36,0 -73,11 -103,40zm0 0l0 0 0 0z"/>
  </g>
  <path class="fil0" d="M521 220c15,-4 32,5 36,21 5,15 -5,32 -21,36 -43,12 -75,37 -97,68 -30,40 -45,90 -50,133 -2,17 -17,28 -33,27 -16,-2 -28,-17 -26,-33 6,-53 24,-113 61,-163 30,-40 72,-73 130,-89z"/>
  <path class="fil0" d="M297 414c-17,0 -30,-14 -30,-30 1,-17 14,-30 31,-29 40,0 74,6 102,15 29,9 52,22 72,38 13,10 15,28 5,41 -10,13 -28,16 -41,6 -15,-12 -32,-21 -54,-28 -23,-8 -51,-12 -85,-13z"/>
  <path class="fil0" d="M348 297c-16,-2 -28,-17 -26,-33 2,-17 17,-28 33,-26 41,5 74,14 101,26 27,13 49,28 67,46 12,11 12,30 1,42 -12,12 -31,12 -42,0 -14,-12 -30,-24 -51,-33 -22,-10 -49,-18 -83,-22z"/>
  <path class="fil0" d="M765 733c17,16 39,23 61,25 20,1 40,-3 57,-9 18,-7 33,-17 43,-29 12,-12 18,-28 14,-45l0 -1 0 0c-2,-9 -4,-15 -8,-19 -5,-6 -13,-9 -24,-9 -14,0 -32,5 -51,14 -32,15 -64,41 -92,73zm58 84c-47,-2 -92,-23 -121,-67l0 0c-7,-10 -7,-24 1,-34 36,-49 83,-88 128,-109 27,-13 54,-20 77,-20 28,0 53,9 70,30 10,12 17,27 21,46 7,37 -5,71 -28,97 -18,19 -41,34 -67,44 -25,10 -53,15 -81,13z"/>
  <path class="fil0" d="M609 750c-29,44 -74,65 -121,67 -28,2 -56,-3 -82,-13 -25,-10 -49,-25 -66,-44 -23,-26 -35,-60 -28,-97 4,-19 11,-34 21,-46 17,-21 42,-30 70,-30 23,0 50,7 77,20 45,21 92,60 128,109 8,10 8,24 1,34l0 0zm-124 8c22,-2 44,-9 61,-25 -28,-32 -60,-58 -92,-73 -19,-9 -37,-14 -51,-14 -11,0 -19,3 -24,9 -4,4 -6,10 -8,19l0 0 0 1c-4,17 2,33 14,45 10,12 25,22 43,29 17,6 37,10 57,9z"/>
  <path class="fil0" d="M626 1006c0,-17 13,-30 30,-30 16,0 29,13 29,30l0 48c0,16 -13,29 -29,29 -17,0 -30,-13 -30,-29l0 -48z"/>
  <g>
   <path class="fil0" d="M904 954l1 8 0 4 0 6 0 1 0 0c0,61 -29,115 -75,155 -45,38 -107,62 -174,62 -68,0 -130,-24 -175,-62 -46,-40 -75,-94 -75,-155l0 -3 0 -6 0 -2 0 0 1 -8c1,-16 16,-29 32,-27 5,0 9,1 13,4 27,14 58,25 93,33 34,8 71,12 111,12 39,0 76,-4 110,-12 35,-8 67,-20 95,-34 14,-8 32,-2 40,13 2,3 3,7 3,11l0 0zm-112 128c25,-21 43,-48 50,-79 -20,8 -41,14 -63,19 -38,9 -80,13 -123,13 -44,0 -86,-4 -124,-13 -22,-5 -43,-11 -63,-19 7,31 25,58 50,79 35,30 83,48 137,48 53,0 101,-18 136,-48zm-386 -112c0,-2 1,-4 1,-6l-1 6z"/>
  </g>
  <path class="fil0" d="M738 1006c0,-17 14,-30 30,-30 16,0 30,13 30,30l0 25c0,16 -14,29 -30,29 -16,0 -30,-13 -30,-29l0 -25z"/>
  <path class="fil0" d="M513 1006c0,-17 14,-30 30,-30 17,0 30,13 30,30l0 25c0,16 -13,29 -30,29 -16,0 -30,-13 -30,-29l0 -25z"/>
  <path class="fil0" d="M560 1114c0,-17 13,-30 30,-30 16,0 29,13 29,30l0 37c0,17 -13,30 -29,30 -17,0 -30,-13 -30,-30l0 -37z"/>
  <path class="fil0" d="M703 1111c0,-16 14,-30 30,-30 16,0 30,14 30,30l0 38c0,16 -14,29 -30,29 -16,0 -30,-13 -30,-29l0 -38z"/>
  <path class="fil0" d="M1149 500c45,1 85,19 115,49 29,30 47,71 47,116 0,45 -18,86 -47,115 -30,30 -70,49 -115,50l-30 0 0 -30 0 -270 0 -30 30 0zm72 91c-12,-12 -26,-21 -43,-27l0 201c17,-5 31,-14 43,-26 19,-19 30,-45 30,-74 0,-29 -11,-55 -30,-74z"/>
  <path class="fil0" d="M133 564c-17,6 -31,15 -43,27 -19,19 -30,45 -30,74 0,29 11,55 30,74 12,12 26,21 43,26l0 -201zm-86 -15c30,-30 70,-48 115,-49l30 0 0 30 0 270 0 30 -30 0c-45,-1 -85,-20 -115,-50 -29,-29 -47,-70 -47,-115 0,-45 18,-86 47,-116z"/>
  <path class="fil0" d="M717 570c-10,-13 -7,-32 6,-42 13,-10 31,-7 41,6l234 303c9,13 7,32 -6,42 -13,10 -32,8 -42,-5l-233 -304z"/>
 </g>
</svg>
