<?xml version="1.0" encoding="utf-8"?>
<!-- Generator: Adobe Illustrator 25.2.3, SVG Export Plug-In . SVG Version: 6.00 Build 0)  -->
<svg version="1.1" id="Outline" xmlns="http://www.w3.org/2000/svg" xmlns:xlink="http://www.w3.org/1999/xlink" x="0px" y="0px"
	 viewBox="0 0 512 512" enable-background="new 0 0 512 512" xml:space="preserve">
<path d="M506.187,465.315c-2.391-0.68-59.133-16.543-101.164,0.262c-30.819,12.318-84.076-1.52-101.031-6.492v-10.079
	c0-4.418-3.578-8-8-8s-8,3.582-8,8v48h-8v-68.508c13.601,0.308,25.783-3.655,26.531-3.902c3.266-1.09,5.469-4.145,5.469-7.59
	v-14.254c0-10.449,2.336-20.977,6.758-30.445l40.969-87.797c4.219-9.043,11.031-16.438,19.688-21.383l37.68-21.531
	c2.875-1.645,5.328-3.812,7.289-6.438l18.609-24.816c4.078-5.414,4.281-12.844,0.523-18.484c-4.5-6.758-11.719-11.094-19.805-11.891
	c-8.078-0.809-16.008,2.031-21.758,7.777l-13.766,13.762c-0.617,0.613-1.32,1.121-2.086,1.504l-38.523,19.262l-2.625-4.457
	l49.398-69.605c3.781-5.941,5.516-13.074,4.875-20.074c-0.539-5.961-1.328-16.285-2.188-27.539
	c-1.047-13.641-2.188-28.637-3.125-38.961c-0.695-7.605-4.82-14.258-11.32-18.242c-6.555-4.016-14.43-4.672-22.094-1.602
	c-14.797,5.914-23.906,21.113-22.148,36.965l4.727,42.449c0.422,3.73-0.5,7.508-2.203,10.113L293.75,190.94l-3.977-1.984
	l26.43-79.293c2.766-8.266,2.773-17,0.016-25.266l-22.336-67.027c-2.312-6.926-7.555-12.348-14.391-14.879
	c-6.875-2.547-14.469-1.84-21.312,2.273c-16.266,9.758-23.828,29.27-18.383,47.453l13.32,44.383
	c1.555,5.18,1.305,10.793-0.703,15.809l-25.836,64.598h-10.586v-8c0-3.02-1.438-7.133-5.477-9.629
	c-0.813-0.503-1.66-0.879-2.523-1.176v-13.195c0-4.418-3.578-8-8-8s-8,3.582-8,8V160.2c-1.256,0.539-2.473,1.097-3.578,1.649
	c-1.633,0.818-3.071,1.349-4.422,1.769v-32.91c1.911-0.943,3.815-2.205,5.656-4.046c2.68-2.676,11.094-0.309,14.789,1.512
	c2.477,1.223,5.406,1.094,7.758-0.363c2.359-1.457,3.797-4.031,3.797-6.805v-88c0-8.824-7.18-16-16-16c-22.055,0-40,17.945-40,40v64
	c0,2.121,0.844,4.156,2.344,5.656c1.475,1.475,3.43,2.854,5.656,3.927v30.494c-1.032,0-2.068,0.124-3.062,0.532
	c-2.992,1.238-4.938,4.156-4.938,7.391v15.188c-3.708,17.524-14.246,33.567-24.535,45.84l-6.981-13.969L129,213.94
	c4.883-19.5,0.758-39.906-11.305-55.992c-3.242-4.324-8.461-6.672-13.797-6.371c-5.398,0.34-10.211,3.34-12.891,8.031l-22.992,40.23
	c-2.875,5.035-3.828,10.934-2.695,16.613l14.117,70.566c0.703,3.5,2.203,6.855,4.336,9.691l53.82,71.766
	c9.281,12.383,14.398,27.727,14.398,43.199v85.332h-136v-18.543c9.859-3.305,35.391-9.242,69.469,2.133
	c13.516,4.504,27.664,7.008,42.055,7.449c0.078,0.004,0.164,0.004,0.25,0.004c4.305,0,7.859-3.422,7.992-7.754
	c0.133-4.418-3.336-8.105-7.758-8.242c-12.836-0.395-25.445-2.625-37.477-6.637c-50.547-16.848-84.672-0.277-86.109,0.434
	c-2.711,1.355-4.422,4.125-4.422,7.156v32c0,4.418,3.578,8,8,8h152h112h24h208c4.422,0,8-3.582,8-8v-32
	C511.992,469.436,509.625,466.295,506.187,465.315z M263.992,497.006h-10.374c-1.281-4.76-2.343-12.684,1.53-20.422
	c8.242-16.48,2.609-38.762,0.883-44.66c0.211-3.68,1.289-7.82,2.016-8.551c0.016,0.012,0.68-0.055,2.367,0.789
	c1.166,0.583,2.362,1.096,3.578,1.547V497.006z M175.992,57.006c0-13.234,10.766-24,24-24v77.027
	c-6.828-1.266-15.352-0.996-21.656,5.316c-0.537,0.544-1.255,1.306-2.293,1.209c-0.018,0-0.033-0.01-0.051-0.01V57.006z
	 M150.39,358.873L96.562,287.1c-0.719-0.957-1.203-2.039-1.438-3.223l-14.117-70.566c-0.375-1.891-0.055-3.863,0.898-5.539
	l22.992-40.223c9.156,12.211,12.289,27.703,8.578,42.52l-0.531,2.133c-0.914,3.699-0.492,7.609,1.211,11.031l19.141,38.273
	c3.227,6.445,9.125,11.062,16.195,12.676c16.758,3.816,57.633,17.109,75.148,57.977c1.734,4.059,6.453,5.93,10.5,4.199
	c4.062-1.738,5.945-6.441,4.203-10.504c-20.406-47.625-67.148-62.91-86.297-67.273c-2.383-0.543-4.367-2.086-5.438-4.23l-4.41-8.825
	c13.017-14.444,27.903-35.268,32.637-58.953c0.102-0.516,0.156-1.039,0.156-1.566v-4.531c0.083,0,0.152-0.045,0.235-0.047
	c5.313,0.416,11.877-0.532,19.343-4.265c1.836-0.918,3.289-1.523,4.422-1.926v2.77c0,8.824,7.18,16,16,16h10.586
	c6.586,0,12.414-3.949,14.852-10.055l25.844-64.598c3.344-8.363,3.758-17.719,1.172-26.352l-13.32-44.383
	c-3.344-11.164,1.297-23.145,11.781-29.434c2.164-1.301,4.742-1.539,7.031-0.691c1.328,0.492,3.711,1.789,4.766,4.934l22.336,67.027
	c1.648,4.949,1.648,10.18-0.008,15.141l-26.438,79.301c-2.492,7.504,0.953,15.832,8.023,19.367l3.977,1.988
	c6.758,3.383,15.047,1.52,19.703-4.391l47.5-60.145c4.172-6.258,6.008-13.816,5.18-21.285l-4.727-42.445
	c-0.969-8.723,4.039-17.086,12.68-20.539c2.43-0.98,5.102-0.758,7.297,0.586c2.148,1.32,3.516,3.523,3.742,6.047
	c0.93,10.266,2.07,25.172,3.109,38.734c0.867,11.344,1.656,21.754,2.203,27.773c0.32,3.496-0.547,7.055-2.211,9.695l-49.398,69.609
	c-3,4.719-3.312,10.75-0.812,15.742l2.398,4.793c3.953,7.898,13.594,11.098,21.469,7.156l38.523-19.262
	c2.297-1.148,4.391-2.66,6.234-4.496l13.773-13.77c2.336-2.344,5.586-3.504,8.867-3.168c3.297,0.324,6.234,2.09,8.07,4.844
	l-18.625,24.836c-0.656,0.871-1.469,1.59-2.422,2.137l-37.68,21.531c-11.539,6.59-20.617,16.445-26.25,28.504l-40.969,87.801
	c-5.398,11.574-8.258,24.441-8.258,37.211v8.133c-7.812,1.734-20.133,3.117-28.422-1.035c-8.188-4.09-14.078-2.371-17.602-0.211
	c-9.492,5.871-9.977,20.496-9.977,23.367c0,0.859,0.141,1.715,0.414,2.531c1.93,5.801,5.781,23.195,0.43,33.891
	c-5.093,10.184-4.909,20.19-3.56,27.578h-69.284v-85.332C167.992,392.764,161.742,374.01,150.39,358.873z M495.992,497.006h-192
	v-21.263c22.044,6.144,73.725,17.973,106.969,4.693c29.75-11.91,70.133-4.562,85.031-1.172V497.006z"/>
</svg>
